<svg width="43" height="46" viewBox="0 0 43 46" fill="none" xmlns="http://www.w3.org/2000/svg">
<g id="Food" filter="url(#filter0_d_25_243)">
<path id="Polygon 1" d="M17.6256 2.42074C19.9121 1.10064 22.7291 1.10064 25.0156 2.42073L33.6254 7.39161C35.9119 8.71171 37.3204 11.1513 37.3204 13.7915V23.7333C37.3204 26.3735 35.9119 28.8131 33.6254 30.1332L25.0156 35.1041C22.7291 36.4242 19.9121 36.4242 17.6256 35.1041L9.0158 30.1332C6.72932 28.8131 5.3208 26.3735 5.3208 23.7333V13.7915C5.3208 11.1513 6.72932 8.71171 9.0158 7.39161L17.6256 2.42074Z" fill="white"/>
<path id="Union" fill-rule="evenodd" clip-rule="evenodd" d="M24.3205 2.80385L33.641 8.18505C35.4974 9.25684 36.641 11.2376 36.641 13.3812V24.1436C36.641 26.2872 35.4974 28.2679 33.641 29.3397L24.3205 34.7209C22.4641 35.7927 20.1769 35.7927 18.3205 34.7209L9 29.3397C7.14359 28.268 6 26.2872 6 24.1436V13.3812C6 11.2376 7.14359 9.25684 9 8.18505L18.3205 2.80385C20.1769 1.73205 22.4641 1.73205 24.3205 2.80385ZM17.3205 1.0718C19.7957 -0.357266 22.8453 -0.357266 25.3205 1.0718L34.641 6.453C37.1162 7.88206 38.641 10.5231 38.641 13.3812V24.1436C38.641 27.0017 37.1162 29.6427 34.641 31.0718L25.3205 36.453C22.8453 37.8821 19.7957 37.8821 17.3205 36.453L8 31.0718C5.52479 29.6427 4 27.0017 4 24.1436V13.3812C4 10.5231 5.52479 7.88206 8 6.453L17.3205 1.0718ZM24.3203 4.49446C22.4639 3.42266 20.1767 3.42266 18.3203 4.49446L10.4639 9.03036C8.60746 10.1022 7.46387 12.0829 7.46387 14.2265V23.2983C7.46387 25.4419 8.60746 27.4227 10.4639 28.4945L18.3203 33.0304C20.1767 34.1022 22.4639 34.1022 24.3203 33.0304L32.1767 28.4945C34.0331 27.4227 35.1767 25.4419 35.1767 23.2983V14.2265C35.1767 12.0829 34.0331 10.1022 32.1767 9.03036L24.3203 4.49446Z" fill="black"/>
<g id="Group 4">
<path id="Vector" d="M25 15C17.8 16.6 16.12 21.536 14.456 25.672L15.968 26.2L16.728 24.36C17.112 24.496 17.512 24.6 17.8 24.6C26.6 24.6 29 11 29 11C28.2 12.6 22.6 12.8 18.6 13.6C14.6 14.4 13 17.8 13 19.4C13 21 14.4 22.4 14.4 22.4C17 15 25 15 25 15Z" fill="#94E653"/>
<g id="Mask Group">
<mask id="mask0_25_243" style="mask-type:alpha" maskUnits="userSpaceOnUse" x="13" y="11" width="16" height="16">
<path id="Vector_2" d="M25 15C17.8 16.6 16.12 21.536 14.456 25.672L15.968 26.2L16.728 24.36C17.112 24.496 17.512 24.6 17.8 24.6C26.6 24.6 29 11 29 11C28.2 12.6 22.6 12.8 18.6 13.6C14.6 14.4 13 17.8 13 19.4C13 21 14.4 22.4 14.4 22.4C17 15 25 15 25 15Z" fill="#94E653"/>
</mask>
<g mask="url(#mask0_25_243)">
<g id="Vector 1" style="mix-blend-mode:multiply">
<path d="M18.0002 16C13.0002 19.5 13.5002 23 13.5002 23L14.0002 26.5C14.0002 26.5 18 18.5 20.5 16.5C23 15 25 15 25 15C23.5 15 20.5002 14.5 18.0002 16Z" fill="#94E553"/>
</g>
</g>
</g>
</g>
</g>
<defs>
<filter id="filter0_d_25_243" x="0" y="0" width="42.6411" height="45.5248" filterUnits="userSpaceOnUse" color-interpolation-filters="sRGB">
<feFlood flood-opacity="0" result="BackgroundImageFix"/>
<feColorMatrix in="SourceAlpha" type="matrix" values="0 0 0 0 0 0 0 0 0 0 0 0 0 0 0 0 0 0 127 0" result="hardAlpha"/>
<feOffset dy="4"/>
<feGaussianBlur stdDeviation="2"/>
<feComposite in2="hardAlpha" operator="out"/>
<feColorMatrix type="matrix" values="0 0 0 0 0 0 0 0 0 0 0 0 0 0 0 0 0 0 0.25 0"/>
<feBlend mode="normal" in2="BackgroundImageFix" result="effect1_dropShadow_25_243"/>
<feBlend mode="normal" in="SourceGraphic" in2="effect1_dropShadow_25_243" result="shape"/>
</filter>
</defs>
</svg>
