<svg width="44" height="46" viewBox="0 0 44 46" fill="none" xmlns="http://www.w3.org/2000/svg">
<g id="Water" filter="url(#filter0_d_22_228)">
<path id="Polygon 1" d="M18.3053 2.65834C20.5918 1.33825 23.4088 1.33825 25.6953 2.65834L34.3051 7.62922C36.5916 8.94932 38.0001 11.389 38.0001 14.0291V23.9709C38.0001 26.6111 36.5916 29.0507 34.3051 30.3708L25.6953 35.3417C23.4088 36.6618 20.5918 36.6618 18.3053 35.3417L9.69548 30.3708C7.40901 29.0507 6.00049 26.6111 6.00049 23.9709V14.0291C6.00049 11.389 7.40901 8.94932 9.69548 7.62922L18.3053 2.65834Z" fill="white"/>
<path id="Union" fill-rule="evenodd" clip-rule="evenodd" d="M25.0002 3.04146L34.3207 8.42266C36.1771 9.49445 37.3207 11.4752 37.3207 13.6188V24.3812C37.3207 26.5248 36.1771 28.5056 34.3207 29.5774L25.0002 34.9586C23.1438 36.0303 20.8566 36.0303 19.0002 34.9586L9.67969 29.5774C7.82328 28.5056 6.67969 26.5248 6.67969 24.3812V13.6188C6.67969 11.4752 7.82328 9.49445 9.67969 8.42266L19.0002 3.04146C20.8566 1.96966 23.1438 1.96966 25.0002 3.04146ZM18.0002 1.30941C20.4754 -0.119656 23.525 -0.119656 26.0002 1.30941L35.3207 6.69061C37.7959 8.11967 39.3207 10.7607 39.3207 13.6188V24.3812C39.3207 27.2393 37.7959 29.8803 35.3207 31.3094L26.0002 36.6906C23.525 38.1197 20.4754 38.1197 18.0002 36.6906L8.67969 31.3094C6.20448 29.8803 4.67969 27.2393 4.67969 24.3812V13.6188C4.67969 10.7607 6.20448 8.11967 8.67969 6.69061L18.0002 1.30941ZM25 4.73207C23.1436 3.66027 20.8564 3.66027 19 4.73207L11.1436 9.26797C9.28715 10.3398 8.14355 12.3205 8.14355 14.4641V23.5359C8.14355 25.6795 9.28715 27.6603 11.1436 28.7321L19 33.268C20.8564 34.3398 23.1436 34.3398 25 33.268L32.8564 28.7321C34.7128 27.6603 35.8564 25.6795 35.8564 23.5359V14.4641C35.8564 12.3205 34.7128 10.3398 32.8564 9.26797L25 4.73207Z" fill="black"/>
<g id="Group 3">
<path id="Vector" d="M22 26.75C20.4087 26.75 18.8826 26.1179 17.7574 24.9926C16.6321 23.8674 16 22.3413 16 20.75C16 16.75 22 10 22 10C22 10 28 16.75 28 20.75C28 22.3413 27.3679 23.8674 26.2426 24.9926C25.1174 26.1179 23.5913 26.75 22 26.75V26.75Z" fill="#42C9F3"/>
<g id="Vector_2" style="mix-blend-mode:multiply">
<path d="M22 26.75C20.4087 26.75 18.8826 26.1179 17.7574 24.9926C16.6321 23.8674 16 22.3413 16 20.75C16 16.75 18.5 19.5 18.5 19.5C18.5 19.5 22.5 27.5 28 20.75C28 22.3413 27.3679 23.8674 26.2426 24.9926C25.1174 26.1179 23.5913 26.75 22 26.75Z" fill="#42C9F3"/>
</g>
</g>
</g>
<defs>
<filter id="filter0_d_22_228" x="0.679688" y="0.23761" width="42.6411" height="45.5248" filterUnits="userSpaceOnUse" color-interpolation-filters="sRGB">
<feFlood flood-opacity="0" result="BackgroundImageFix"/>
<feColorMatrix in="SourceAlpha" type="matrix" values="0 0 0 0 0 0 0 0 0 0 0 0 0 0 0 0 0 0 127 0" result="hardAlpha"/>
<feOffset dy="4"/>
<feGaussianBlur stdDeviation="2"/>
<feComposite in2="hardAlpha" operator="out"/>
<feColorMatrix type="matrix" values="0 0 0 0 0 0 0 0 0 0 0 0 0 0 0 0 0 0 0.25 0"/>
<feBlend mode="normal" in2="BackgroundImageFix" result="effect1_dropShadow_22_228"/>
<feBlend mode="normal" in="SourceGraphic" in2="effect1_dropShadow_22_228" result="shape"/>
</filter>
</defs>
</svg>
